<?xml version="1.0" encoding="utf-8"?>
<!-- Generator: Adobe Illustrator 24.2.3, SVG Export Plug-In . SVG Version: 6.00 Build 0)  -->
<svg version="1.1" id="Layer_1" xmlns="http://www.w3.org/2000/svg" xmlns:xlink="http://www.w3.org/1999/xlink" x="0px" y="0px"
	 viewBox="0 0 115 41" style="enable-background:new 0 0 115 41;" xml:space="preserve">
<style type="text/css">
	.st0{fill:#904B93;}
	.st1{fill:#71568C;}
	.st2{fill:#FFFFFF;stroke:#A185CC;stroke-width:0.25;stroke-miterlimit:10;}
	.st3{fill:#904B93;stroke:url(#SVGID_1_);stroke-width:0.25;stroke-miterlimit:10;}
	.st4{fill:#FFFFFF;stroke:#D1C6E1;stroke-width:0.25;stroke-miterlimit:10;}
</style>
<g>
	<path class="st0" d="M29.96,18.52c0-2.59,1.71-4.1,3.69-4.1c1.01,0,1.82,0.48,2.35,1.02l-0.94,1.13c-0.4-0.36-0.82-0.62-1.38-0.62
		c-1.07,0-1.92,0.95-1.92,2.52c0,1.61,0.74,2.54,1.9,2.54c0.64,0,1.14-0.32,1.52-0.73l0.94,1.1c-0.65,0.76-1.51,1.15-2.53,1.15
		C31.62,22.53,29.96,21.15,29.96,18.52z"/>
	<path class="st0" d="M36.9,20.73c0-1.25,1-1.93,3.35-2.17c-0.04-0.53-0.29-0.86-0.94-0.86c-0.5,0-1,0.2-1.57,0.54l-0.64-1.16
		c0.76-0.46,1.61-0.78,2.54-0.78c1.52,0,2.36,0.86,2.36,2.69v3.41h-1.44l-0.12-0.61H40.4c-0.5,0.44-1.06,0.76-1.73,0.76
		C37.58,22.53,36.9,21.73,36.9,20.73z M40.24,20.65v-1.04c-1.25,0.17-1.66,0.53-1.66,0.98c0,0.38,0.26,0.56,0.68,0.56
		C39.67,21.16,39.93,20.97,40.24,20.65z"/>
	<path class="st0" d="M43.5,16.43h1.44l0.12,0.59h0.05c0.47-0.42,1.07-0.73,1.69-0.73c1.44,0,2.33,1.19,2.33,3.02
		c0,2.04-1.22,3.21-2.51,3.21c-0.52,0-1-0.23-1.42-0.62l0.06,0.95v1.74H43.5V16.43z M47.31,19.34c0-1.07-0.32-1.61-1.03-1.61
		c-0.36,0-0.67,0.17-1.02,0.54v2.43c0.31,0.29,0.65,0.38,0.95,0.38C46.82,21.09,47.31,20.56,47.31,19.34z"/>
	<path class="st0" d="M50.37,16.43h1.44l0.12,0.76h0.05c0.5-0.48,1.1-0.9,1.91-0.9c1.3,0,1.85,0.91,1.85,2.4v3.69h-1.76v-3.47
		c0-0.86-0.23-1.13-0.73-1.13c-0.44,0-0.72,0.2-1.1,0.58v4.02h-1.76V16.43z"/>
	<path class="st0" d="M56.89,19.41c0-1.98,1.39-3.12,2.9-3.12c1.5,0,2.89,1.14,2.89,3.12c0,1.98-1.39,3.12-2.89,3.12
		C58.28,22.53,56.89,21.39,56.89,19.41z M60.88,19.41c0-1.03-0.37-1.69-1.09-1.69c-0.73,0-1.09,0.66-1.09,1.69
		c0,1.03,0.36,1.69,1.09,1.69C60.51,21.1,60.88,20.44,60.88,19.41z"/>
	<path class="st1" d="M65.83,15.35h-2.37v-0.84h5.76v0.84h-2.38v7.03h-1.01V15.35z"/>
	<path class="st1" d="M69.98,16.55h0.82l0.08,1.06h0.04c0.4-0.73,1-1.2,1.66-1.2c0.25,0,0.43,0.04,0.62,0.12L73,17.39
		c-0.19-0.06-0.32-0.1-0.56-0.1c-0.49,0-1.08,0.36-1.48,1.34v3.74h-0.98V16.55z"/>
	<path class="st1" d="M73.5,20.87c0-1.27,1.09-1.91,3.57-2.18c0-0.74-0.24-1.46-1.2-1.46c-0.67,0-1.28,0.31-1.74,0.62l-0.38-0.68
		c0.54-0.35,1.36-0.76,2.29-0.76c1.43,0,2.03,0.95,2.03,2.4v3.57h-0.82l-0.08-0.7h-0.04c-0.55,0.46-1.2,0.84-1.93,0.84
		C74.23,22.53,73.5,21.91,73.5,20.87z M77.07,20.95v-1.62c-1.94,0.24-2.61,0.72-2.61,1.46c0,0.66,0.46,0.94,1.03,0.94
		C76.05,21.73,76.51,21.46,77.07,20.95z"/>
	<path class="st1" d="M79.72,14.72c0-0.38,0.3-0.64,0.68-0.64s0.68,0.25,0.68,0.64c0,0.37-0.3,0.64-0.68,0.64
		S79.72,15.09,79.72,14.72z M79.9,16.55h0.98v5.83H79.9V16.55z"/>
	<path class="st1" d="M82.85,16.55h0.82l0.08,0.84h0.04c0.55-0.55,1.15-0.98,1.96-0.98c1.22,0,1.77,0.79,1.77,2.28v3.69h-0.98v-3.56
		c0-1.09-0.34-1.56-1.1-1.56c-0.6,0-1.01,0.31-1.6,0.9v4.22h-0.98V16.55z"/>
	<path class="st1" d="M88.99,19.48c0-1.91,1.28-3.07,2.61-3.07c1.49,0,2.33,1.07,2.33,2.73c0,0.2-0.01,0.42-0.04,0.56h-3.93
		c0.07,1.23,0.83,2.03,1.94,2.03c0.55,0,1.02-0.18,1.45-0.46l0.35,0.65c-0.5,0.32-1.13,0.6-1.92,0.6
		C90.22,22.53,88.99,21.39,88.99,19.48z M93.06,19c0-1.18-0.53-1.81-1.44-1.81c-0.82,0-1.56,0.66-1.68,1.81H93.06z"/>
	<path class="st1" d="M95.37,16.55h0.82l0.08,1.06h0.04c0.4-0.73,1-1.2,1.66-1.2c0.25,0,0.43,0.04,0.62,0.12l-0.19,0.86
		c-0.19-0.06-0.32-0.1-0.56-0.1c-0.49,0-1.08,0.36-1.48,1.34v3.74h-0.98V16.55z"/>
	<path class="st1" d="M99.57,16.19c0-1.4,1.02-2.36,2.25-2.36c1.25,0,2.27,0.96,2.27,2.36s-1.02,2.36-2.27,2.36
		C100.59,18.56,99.57,17.6,99.57,16.19z M103.61,16.19c0-1.13-0.78-1.93-1.79-1.93c-1.01,0-1.78,0.8-1.78,1.93
		c0,1.14,0.77,1.92,1.78,1.92C102.83,18.11,103.61,17.33,103.61,16.19z M100.96,14.95h0.91c0.5,0,0.94,0.2,0.94,0.78
		c0,0.29-0.18,0.56-0.44,0.66l0.55,1h-0.55l-0.42-0.84h-0.49v0.84h-0.49V14.95z M101.77,16.16c0.32,0,0.52-0.14,0.52-0.41
		c0-0.24-0.13-0.4-0.49-0.4h-0.34v0.8H101.77z"/>
</g>
<g>
	<circle class="st2" cx="16.95" cy="22.88" r="9.82"/>
	
		<radialGradient id="SVGID_1_" cx="40.8549" cy="25.7446" r="8.0251" gradientTransform="matrix(0.9933 0.1158 -0.1158 0.9933 -21.1813 -7.3573)" gradientUnits="userSpaceOnUse">
		<stop  offset="0.6263" style="stop-color:#6A2874"/>
		<stop  offset="0.7814" style="stop-color:#672772"/>
	</radialGradient>
	<circle class="st3" cx="16.42" cy="22.95" r="7.9"/>
	<g>
		<circle class="st4" cx="10.13" cy="14.11" r="4.91"/>
		<circle class="st1" cx="9.86" cy="14.14" r="3.87"/>
	</g>
	<g>
		<circle class="st4" cx="23.28" cy="31.33" r="4.91"/>
		<circle class="st1" cx="23.02" cy="31.36" r="3.87"/>
	</g>
</g>
<g>
	<path class="st1" d="M31.3,30.18l-0.16,0.24H30.9v-3.74h0.46v1.26c0.04-0.06,0.13-0.12,0.25-0.17c0.12-0.05,0.24-0.08,0.36-0.08
		c0.36,0,0.65,0.12,0.87,0.37c0.22,0.25,0.33,0.56,0.33,0.94c0,0.44-0.11,0.78-0.33,1.03s-0.52,0.38-0.91,0.38
		c-0.12,0-0.25-0.02-0.37-0.07C31.45,30.3,31.36,30.25,31.3,30.18z M31.37,28.3v1.51c0,0.03,0.06,0.07,0.17,0.13s0.2,0.09,0.26,0.09
		c0.32,0,0.54-0.08,0.68-0.23c0.14-0.15,0.21-0.41,0.21-0.76c0-0.3-0.08-0.53-0.24-0.69s-0.37-0.25-0.64-0.25
		c-0.06,0-0.14,0.02-0.24,0.07C31.46,28.22,31.4,28.26,31.37,28.3z"/>
	<path class="st1" d="M35.11,28.2c-0.1-0.07-0.2-0.1-0.31-0.1c-0.16,0-0.31,0.08-0.43,0.23c-0.12,0.15-0.18,0.33-0.18,0.55v1.5
		h-0.46v-2.61h0.46v0.42c0.17-0.31,0.42-0.47,0.75-0.47c0.08,0,0.2,0.01,0.36,0.04L35.11,28.2z"/>
	<path class="st1" d="M37.83,29.11h-1.88c0,0.31,0.08,0.54,0.25,0.71c0.15,0.14,0.34,0.21,0.57,0.21c0.27,0,0.49-0.08,0.66-0.23
		l0.2,0.33c-0.07,0.07-0.18,0.13-0.33,0.19c-0.19,0.07-0.39,0.1-0.62,0.1c-0.33,0-0.61-0.11-0.84-0.33
		c-0.26-0.25-0.38-0.58-0.38-0.99c0-0.43,0.13-0.78,0.39-1.04c0.23-0.23,0.51-0.35,0.83-0.35c0.37,0,0.67,0.1,0.88,0.31
		c0.21,0.2,0.31,0.47,0.31,0.8C37.87,28.93,37.86,29.02,37.83,29.11z M36.71,28.1c-0.21,0-0.38,0.07-0.52,0.2
		c-0.13,0.13-0.21,0.28-0.23,0.47h1.45c0-0.19-0.06-0.34-0.18-0.47C37.1,28.17,36.93,28.1,36.71,28.1z"/>
	<path class="st1" d="M39.84,30.07c-0.19,0.23-0.47,0.35-0.85,0.35c-0.21,0-0.38-0.07-0.53-0.22c-0.15-0.15-0.23-0.33-0.23-0.56
		c0-0.26,0.12-0.49,0.35-0.67c0.23-0.18,0.53-0.27,0.89-0.27c0.1,0,0.21,0.02,0.33,0.06c0-0.42-0.19-0.63-0.57-0.63
		c-0.29,0-0.51,0.08-0.67,0.23l-0.2-0.39c0.09-0.07,0.21-0.13,0.37-0.18c0.16-0.05,0.3-0.08,0.45-0.08c0.38,0,0.65,0.09,0.83,0.26
		c0.17,0.17,0.26,0.45,0.26,0.82v0.94c0,0.23,0.07,0.38,0.21,0.46v0.23c-0.19,0-0.33-0.03-0.42-0.08
		C39.94,30.28,39.88,30.19,39.84,30.07z M39.79,29.09c-0.15-0.03-0.25-0.05-0.31-0.05c-0.23,0-0.43,0.06-0.57,0.18
		s-0.22,0.26-0.22,0.43c0,0.27,0.16,0.41,0.48,0.41c0.23,0,0.44-0.11,0.62-0.33V29.09z"/>
	<path class="st1" d="M41.15,28.12h-0.3v-0.37h0.3v-0.55l0.46-0.18v0.73h0.72v0.37h-0.72v1.3c0,0.22,0.04,0.38,0.11,0.47
		c0.07,0.09,0.19,0.14,0.36,0.14c0.12,0,0.24-0.03,0.37-0.09l0.07,0.41c-0.19,0.05-0.4,0.07-0.63,0.07c-0.21,0-0.38-0.08-0.52-0.23
		c-0.14-0.15-0.21-0.35-0.21-0.58V28.12z"/>
	<path class="st1" d="M44.58,30.37v-1.64c0-0.2-0.05-0.35-0.14-0.46s-0.23-0.17-0.41-0.17c-0.11,0-0.23,0.03-0.34,0.1
		c-0.11,0.07-0.2,0.14-0.26,0.23v1.94h-0.46v-3.69h0.46v1.36c0.06-0.1,0.16-0.18,0.3-0.24c0.14-0.06,0.28-0.1,0.43-0.1
		c0.28,0,0.49,0.09,0.65,0.27c0.16,0.18,0.24,0.43,0.24,0.75v1.64H44.58z"/>
	<path class="st1" d="M45.92,30.37v-2.22h-0.36v-0.39h0.82v2.61H45.92z M46.18,26.77c0.08,0,0.15,0.03,0.2,0.08
		c0.06,0.06,0.08,0.12,0.08,0.2c0,0.08-0.03,0.15-0.08,0.2c-0.06,0.06-0.12,0.08-0.2,0.08c-0.08,0-0.15-0.03-0.2-0.08
		c-0.06-0.06-0.08-0.12-0.08-0.2s0.03-0.15,0.08-0.2S46.1,26.77,46.18,26.77z"/>
	<path class="st1" d="M48.73,30.37v-1.52c0-0.28-0.04-0.47-0.13-0.58c-0.08-0.11-0.22-0.17-0.42-0.17c-0.11,0-0.22,0.03-0.33,0.1
		s-0.2,0.14-0.27,0.23v1.94h-0.46v-2.61h0.32l0.15,0.34c0.15-0.26,0.4-0.39,0.75-0.39c0.57,0,0.86,0.35,0.86,1.04v1.62H48.73z"/>
	<path class="st1" d="M49.76,31.09l0.25-0.37c0.27,0.18,0.52,0.27,0.75,0.27c0.21,0,0.38-0.04,0.5-0.11
		c0.12-0.07,0.18-0.16,0.18-0.27c0-0.21-0.15-0.32-0.46-0.32c-0.05,0-0.15,0.01-0.28,0.04c-0.14,0.03-0.24,0.04-0.32,0.04
		c-0.37,0-0.56-0.14-0.56-0.42c0-0.09,0.04-0.17,0.13-0.23c0.09-0.07,0.19-0.12,0.32-0.15c-0.37-0.17-0.55-0.47-0.55-0.9
		c0-0.27,0.1-0.5,0.29-0.68s0.43-0.27,0.71-0.27c0.26,0,0.46,0.05,0.6,0.16l0.23-0.28l0.3,0.29l-0.28,0.21
		c0.12,0.15,0.18,0.36,0.18,0.61c0,0.26-0.08,0.48-0.25,0.66c-0.16,0.18-0.38,0.28-0.65,0.31l-0.38,0.04
		c-0.05,0.01-0.11,0.02-0.18,0.05s-0.11,0.07-0.11,0.12c0,0.07,0.08,0.1,0.24,0.1c0.07,0,0.18-0.01,0.33-0.04s0.26-0.04,0.33-0.04
		c0.26,0,0.46,0.06,0.6,0.18c0.14,0.12,0.22,0.29,0.22,0.51c0,0.24-0.11,0.44-0.32,0.58c-0.22,0.15-0.49,0.22-0.82,0.22
		c-0.17,0-0.35-0.03-0.53-0.09C50.03,31.25,49.88,31.17,49.76,31.09z M50.75,28.08c-0.16,0-0.29,0.06-0.39,0.17
		c-0.1,0.11-0.15,0.25-0.15,0.42c0,0.18,0.05,0.33,0.15,0.45c0.1,0.12,0.23,0.18,0.4,0.18c0.16,0,0.29-0.06,0.39-0.17
		s0.14-0.27,0.14-0.46c0-0.16-0.05-0.3-0.15-0.42C51.02,28.14,50.9,28.08,50.75,28.08z"/>
	<path class="st1" d="M56.9,30.37v-1.66c0-0.41-0.18-0.62-0.53-0.62c-0.11,0-0.22,0.03-0.31,0.1c-0.1,0.07-0.16,0.15-0.2,0.24v1.93
		h-0.46v-1.86c0-0.13-0.05-0.23-0.15-0.3c-0.1-0.07-0.23-0.11-0.38-0.11c-0.09,0-0.19,0.04-0.3,0.11c-0.1,0.07-0.18,0.15-0.22,0.24
		v1.93h-0.46v-2.61h0.3l0.15,0.3c0.18-0.23,0.4-0.35,0.67-0.35c0.37,0,0.64,0.12,0.79,0.35c0.05-0.1,0.15-0.18,0.29-0.25
		s0.29-0.1,0.44-0.1c0.27,0,0.48,0.08,0.63,0.24c0.15,0.16,0.22,0.39,0.22,0.67v1.75H56.9z"/>
	<path class="st1" d="M60.23,29.11h-1.88c0,0.31,0.08,0.54,0.25,0.71c0.15,0.14,0.34,0.21,0.57,0.21c0.27,0,0.49-0.08,0.66-0.23
		l0.2,0.33c-0.07,0.07-0.18,0.13-0.33,0.19c-0.19,0.07-0.39,0.1-0.62,0.1c-0.33,0-0.61-0.11-0.84-0.33
		c-0.26-0.25-0.38-0.58-0.38-0.99c0-0.43,0.13-0.78,0.39-1.04c0.23-0.23,0.51-0.35,0.83-0.35c0.37,0,0.67,0.1,0.88,0.31
		c0.21,0.2,0.31,0.47,0.31,0.8C60.26,28.93,60.25,29.02,60.23,29.11z M59.1,28.1c-0.21,0-0.38,0.07-0.52,0.2
		c-0.13,0.13-0.21,0.28-0.23,0.47h1.45c0-0.19-0.06-0.34-0.18-0.47C59.5,28.17,59.32,28.1,59.1,28.1z"/>
	<path class="st1" d="M62.72,27.97l-0.23,0.33c-0.05-0.05-0.13-0.09-0.25-0.13c-0.12-0.04-0.24-0.06-0.35-0.06
		c-0.25,0-0.45,0.09-0.6,0.27c-0.15,0.18-0.22,0.42-0.22,0.73c0,0.31,0.08,0.54,0.23,0.7s0.36,0.24,0.63,0.24
		c0.21,0,0.42-0.08,0.63-0.24l0.18,0.39c-0.25,0.16-0.56,0.24-0.93,0.24c-0.36,0-0.65-0.12-0.88-0.36
		c-0.23-0.24-0.35-0.56-0.35-0.97c0-0.42,0.12-0.75,0.36-1c0.24-0.25,0.57-0.38,0.99-0.38c0.14,0,0.28,0.03,0.44,0.09
		S62.65,27.91,62.72,27.97z"/>
	<path class="st1" d="M64.84,30.37v-1.64c0-0.2-0.05-0.35-0.14-0.46s-0.23-0.17-0.41-0.17c-0.11,0-0.23,0.03-0.34,0.1
		c-0.11,0.07-0.2,0.14-0.26,0.23v1.94h-0.46v-3.69h0.46v1.36c0.06-0.1,0.16-0.18,0.3-0.24c0.14-0.06,0.28-0.1,0.43-0.1
		c0.28,0,0.49,0.09,0.65,0.27c0.16,0.18,0.24,0.43,0.24,0.75v1.64H64.84z"/>
	<path class="st1" d="M67.44,30.07c-0.19,0.23-0.47,0.35-0.85,0.35c-0.21,0-0.38-0.07-0.53-0.22c-0.15-0.15-0.23-0.33-0.23-0.56
		c0-0.26,0.12-0.49,0.35-0.67c0.23-0.18,0.53-0.27,0.89-0.27c0.1,0,0.21,0.02,0.33,0.06c0-0.42-0.19-0.63-0.57-0.63
		c-0.29,0-0.51,0.08-0.67,0.23l-0.2-0.39c0.09-0.07,0.21-0.13,0.37-0.18c0.16-0.05,0.3-0.08,0.45-0.08c0.38,0,0.65,0.09,0.83,0.26
		c0.17,0.17,0.26,0.45,0.26,0.82v0.94c0,0.23,0.07,0.38,0.21,0.46v0.23c-0.19,0-0.33-0.03-0.42-0.08
		C67.54,30.28,67.48,30.19,67.44,30.07z M67.39,29.09c-0.15-0.03-0.25-0.05-0.31-0.05c-0.23,0-0.43,0.06-0.57,0.18
		s-0.22,0.26-0.22,0.43c0,0.27,0.16,0.41,0.48,0.41c0.23,0,0.44-0.11,0.62-0.33V29.09z"/>
	<path class="st1" d="M70.19,30.37v-1.52c0-0.28-0.04-0.47-0.13-0.58c-0.08-0.11-0.22-0.17-0.42-0.17c-0.11,0-0.22,0.03-0.33,0.1
		s-0.2,0.14-0.27,0.23v1.94h-0.46v-2.61h0.32l0.15,0.34c0.15-0.26,0.4-0.39,0.75-0.39c0.57,0,0.86,0.35,0.86,1.04v1.62H70.19z"/>
	<path class="st1" d="M71.54,30.37v-2.22h-0.36v-0.39h0.82v2.61H71.54z M71.8,26.77c0.08,0,0.15,0.03,0.2,0.08
		c0.06,0.06,0.08,0.12,0.08,0.2c0,0.08-0.03,0.15-0.08,0.2c-0.06,0.06-0.12,0.08-0.2,0.08c-0.08,0-0.15-0.03-0.2-0.08
		c-0.06-0.06-0.08-0.12-0.08-0.2s0.03-0.15,0.08-0.2S71.72,26.77,71.8,26.77z"/>
	<path class="st1" d="M74.72,27.97l-0.23,0.33c-0.05-0.05-0.13-0.09-0.25-0.13c-0.12-0.04-0.24-0.06-0.35-0.06
		c-0.25,0-0.45,0.09-0.6,0.27c-0.15,0.18-0.22,0.42-0.22,0.73c0,0.31,0.08,0.54,0.23,0.7s0.36,0.24,0.63,0.24
		c0.21,0,0.42-0.08,0.63-0.24l0.18,0.39c-0.25,0.16-0.56,0.24-0.93,0.24c-0.36,0-0.65-0.12-0.88-0.36
		c-0.23-0.24-0.35-0.56-0.35-0.97c0-0.42,0.12-0.75,0.36-1c0.24-0.25,0.57-0.38,0.99-0.38c0.14,0,0.28,0.03,0.44,0.09
		S74.64,27.91,74.72,27.97z"/>
	<path class="st1" d="M75.05,30.21l0.16-0.44c0.26,0.17,0.47,0.25,0.63,0.25c0.29,0,0.43-0.12,0.43-0.36c0-0.17-0.14-0.32-0.42-0.44
		c-0.21-0.1-0.36-0.17-0.43-0.22c-0.07-0.05-0.14-0.11-0.19-0.17c-0.05-0.06-0.09-0.13-0.12-0.21c-0.03-0.07-0.04-0.15-0.04-0.23
		c0-0.21,0.08-0.38,0.23-0.5s0.36-0.18,0.61-0.18c0.19,0,0.43,0.06,0.72,0.18l-0.13,0.43c-0.18-0.15-0.37-0.22-0.55-0.22
		c-0.11,0-0.2,0.03-0.28,0.08c-0.08,0.05-0.11,0.12-0.11,0.2c0,0.17,0.1,0.29,0.29,0.38l0.33,0.15c0.2,0.09,0.35,0.2,0.44,0.32
		s0.14,0.27,0.14,0.45c0,0.23-0.08,0.42-0.25,0.55s-0.39,0.2-0.68,0.2C75.55,30.42,75.29,30.35,75.05,30.21z"/>
	<path class="st1" d="M80.23,30.07c-0.19,0.23-0.47,0.35-0.85,0.35c-0.21,0-0.38-0.07-0.53-0.22c-0.15-0.15-0.23-0.33-0.23-0.56
		c0-0.26,0.12-0.49,0.35-0.67c0.23-0.18,0.53-0.27,0.89-0.27c0.1,0,0.21,0.02,0.33,0.06c0-0.42-0.19-0.63-0.57-0.63
		c-0.29,0-0.51,0.08-0.67,0.23l-0.2-0.39c0.09-0.07,0.21-0.13,0.37-0.18c0.16-0.05,0.3-0.08,0.45-0.08c0.38,0,0.65,0.09,0.83,0.26
		c0.17,0.17,0.26,0.45,0.26,0.82v0.94c0,0.23,0.07,0.38,0.21,0.46v0.23c-0.19,0-0.33-0.03-0.42-0.08
		C80.33,30.28,80.27,30.19,80.23,30.07z M80.18,29.09c-0.15-0.03-0.25-0.05-0.31-0.05c-0.23,0-0.43,0.06-0.57,0.18
		s-0.22,0.26-0.22,0.43c0,0.27,0.16,0.41,0.48,0.41c0.23,0,0.44-0.11,0.62-0.33V29.09z"/>
	<path class="st1" d="M82.99,30.37v-1.52c0-0.28-0.04-0.47-0.13-0.58c-0.08-0.11-0.22-0.17-0.42-0.17c-0.11,0-0.22,0.03-0.33,0.1
		s-0.2,0.14-0.27,0.23v1.94h-0.46v-2.61h0.32l0.15,0.34c0.15-0.26,0.4-0.39,0.75-0.39c0.57,0,0.86,0.35,0.86,1.04v1.62H82.99z"/>
	<path class="st1" d="M85.77,30.37v-0.19c-0.16,0.16-0.4,0.24-0.7,0.24c-0.33,0-0.59-0.12-0.8-0.35s-0.31-0.55-0.31-0.94
		s0.12-0.73,0.35-1c0.23-0.28,0.51-0.42,0.84-0.42c0.27,0,0.48,0.06,0.62,0.19v-1.21h0.46v3.68H85.77z M85.77,28.36
		c-0.12-0.18-0.28-0.26-0.48-0.26c-0.25,0-0.45,0.09-0.6,0.28c-0.15,0.19-0.23,0.42-0.23,0.71c0,0.63,0.29,0.94,0.86,0.94
		c0.07,0,0.16-0.02,0.26-0.07c0.1-0.05,0.17-0.1,0.19-0.15V28.36z"/>
	<path class="st1" d="M90.37,27.97l-0.23,0.33c-0.05-0.05-0.13-0.09-0.25-0.13c-0.12-0.04-0.24-0.06-0.35-0.06
		c-0.25,0-0.45,0.09-0.6,0.27c-0.15,0.18-0.22,0.42-0.22,0.73c0,0.31,0.08,0.54,0.23,0.7s0.36,0.24,0.63,0.24
		c0.21,0,0.42-0.08,0.63-0.24l0.18,0.39c-0.25,0.16-0.56,0.24-0.93,0.24c-0.36,0-0.65-0.12-0.88-0.36
		c-0.23-0.24-0.35-0.56-0.35-0.97c0-0.42,0.12-0.75,0.36-1c0.24-0.25,0.57-0.38,0.99-0.38c0.14,0,0.28,0.03,0.44,0.09
		S90.3,27.91,90.37,27.97z"/>
	<path class="st1" d="M92.49,30.37v-1.64c0-0.2-0.05-0.35-0.14-0.46s-0.23-0.17-0.41-0.17c-0.11,0-0.23,0.03-0.34,0.1
		c-0.11,0.07-0.2,0.14-0.26,0.23v1.94h-0.46v-3.69h0.46v1.36c0.06-0.1,0.16-0.18,0.3-0.24c0.14-0.06,0.28-0.1,0.43-0.1
		c0.28,0,0.49,0.09,0.65,0.27c0.16,0.18,0.24,0.43,0.24,0.75v1.64H92.49z"/>
	<path class="st1" d="M95.81,29.11h-1.88c0,0.31,0.08,0.54,0.25,0.71c0.15,0.14,0.34,0.21,0.57,0.21c0.27,0,0.49-0.08,0.66-0.23
		l0.2,0.33c-0.07,0.07-0.18,0.13-0.33,0.19c-0.19,0.07-0.39,0.1-0.62,0.1c-0.33,0-0.61-0.11-0.84-0.33
		c-0.26-0.25-0.38-0.58-0.38-0.99c0-0.43,0.13-0.78,0.39-1.04c0.23-0.23,0.51-0.35,0.83-0.35c0.37,0,0.67,0.1,0.88,0.31
		c0.21,0.2,0.31,0.47,0.31,0.8C95.85,28.93,95.83,29.02,95.81,29.11z M94.68,28.1c-0.21,0-0.38,0.07-0.52,0.2
		c-0.13,0.13-0.21,0.28-0.23,0.47h1.45c0-0.19-0.06-0.34-0.18-0.47C95.08,28.17,94.91,28.1,94.68,28.1z"/>
	<path class="st1" d="M99.36,30.37v-1.66c0-0.41-0.18-0.62-0.53-0.62c-0.11,0-0.22,0.03-0.31,0.1c-0.1,0.07-0.16,0.15-0.2,0.24v1.93
		h-0.46v-1.86c0-0.13-0.05-0.23-0.15-0.3c-0.1-0.07-0.23-0.11-0.38-0.11c-0.09,0-0.19,0.04-0.3,0.11c-0.1,0.07-0.18,0.15-0.22,0.24
		v1.93h-0.46v-2.61h0.3l0.15,0.3c0.18-0.23,0.4-0.35,0.67-0.35c0.37,0,0.64,0.12,0.79,0.35c0.05-0.1,0.15-0.18,0.29-0.25
		s0.29-0.1,0.44-0.1c0.27,0,0.48,0.08,0.63,0.24c0.15,0.16,0.22,0.39,0.22,0.67v1.75H99.36z"/>
	<path class="st1" d="M100.71,30.37v-2.22h-0.36v-0.39h0.82v2.61H100.71z M100.96,26.77c0.08,0,0.15,0.03,0.2,0.08
		c0.06,0.06,0.08,0.12,0.08,0.2c0,0.08-0.03,0.15-0.08,0.2c-0.06,0.06-0.12,0.08-0.2,0.08c-0.08,0-0.15-0.03-0.2-0.08
		c-0.06-0.06-0.08-0.12-0.08-0.2s0.03-0.15,0.08-0.2S100.88,26.77,100.96,26.77z"/>
	<path class="st1" d="M101.74,30.21l0.16-0.44c0.26,0.17,0.47,0.25,0.63,0.25c0.29,0,0.43-0.12,0.43-0.36
		c0-0.17-0.14-0.32-0.42-0.44c-0.21-0.1-0.36-0.17-0.43-0.22c-0.07-0.05-0.14-0.11-0.19-0.17c-0.05-0.06-0.09-0.13-0.12-0.21
		c-0.03-0.07-0.04-0.15-0.04-0.23c0-0.21,0.08-0.38,0.23-0.5s0.36-0.18,0.61-0.18c0.19,0,0.43,0.06,0.72,0.18l-0.13,0.43
		c-0.18-0.15-0.37-0.22-0.55-0.22c-0.11,0-0.2,0.03-0.28,0.08c-0.08,0.05-0.11,0.12-0.11,0.2c0,0.17,0.1,0.29,0.29,0.38l0.33,0.15
		c0.2,0.09,0.35,0.2,0.44,0.32s0.14,0.27,0.14,0.45c0,0.23-0.08,0.42-0.25,0.55s-0.39,0.2-0.68,0.2
		C102.24,30.42,101.98,30.35,101.74,30.21z"/>
	<path class="st1" d="M104.1,28.12h-0.3v-0.37h0.3v-0.55l0.46-0.18v0.73h0.72v0.37h-0.72v1.3c0,0.22,0.04,0.38,0.11,0.47
		c0.07,0.09,0.19,0.14,0.36,0.14c0.12,0,0.24-0.03,0.37-0.09l0.07,0.41c-0.19,0.05-0.4,0.07-0.63,0.07c-0.21,0-0.38-0.08-0.52-0.23
		c-0.14-0.15-0.21-0.35-0.21-0.58V28.12z"/>
	<path class="st1" d="M107.34,28.2c-0.1-0.07-0.2-0.1-0.31-0.1c-0.16,0-0.31,0.08-0.43,0.23c-0.12,0.15-0.18,0.33-0.18,0.55v1.5
		h-0.46v-2.61h0.46v0.42c0.17-0.31,0.42-0.47,0.75-0.47c0.08,0,0.2,0.01,0.36,0.04L107.34,28.2z"/>
	<path class="st1" d="M108.86,30.82c-0.06,0.17-0.19,0.3-0.38,0.42c-0.19,0.11-0.41,0.17-0.65,0.17v-0.42c0.19,0,0.36-0.04,0.5-0.14
		c0.14-0.09,0.21-0.2,0.21-0.33c0-0.14-0.03-0.29-0.08-0.42c-0.05-0.14-0.12-0.31-0.2-0.52l-0.71-1.82h0.47l0.77,2.02l0.69-2.02
		h0.47L108.86,30.82z"/>
</g>
</svg>
